<?xml version="1.0" standalone="no"?>
<!DOCTYPE svg PUBLIC "-//W3C//DTD SVG 20010904//EN"
 "http://www.w3.org/TR/2001/REC-SVG-20010904/DTD/svg10.dtd">
<svg version="1.0" xmlns="http://www.w3.org/2000/svg"
 width="490.000000pt" height="486.000000pt" viewBox="0 0 490.000000 486.000000"
 preserveAspectRatio="xMidYMid meet">
<metadata>
Created by potrace 1.16, written by Peter Selinger 2001-2019
</metadata>
<g transform="translate(0.000000,486.000000) scale(0.100000,-0.100000)"
fill="#000000" stroke="none">
<path d="M891 4834 c-439 -130 -760 -474 -867 -929 -18 -76 -19 -144 -19
-1505 l0 -1425 27 -98 c16 -54 42 -133 58 -175 118 -295 377 -554 672 -671
l76 -31 1609 0 c884 0 1618 3 1631 6 12 4 22 11 22 16 0 6 -6 8 -14 5 -10 -4
-13 3 -12 23 0 16 4 26 9 23 4 -2 5 -8 2 -13 -3 -5 0 -12 6 -15 7 -5 10 1 9
16 -4 45 -1 56 11 36 5 -9 8 -21 4 -26 -3 -5 0 -13 6 -17 7 -4 9 -3 6 4 -8 12
58 94 68 84 4 -4 3 3 -4 15 -7 14 -8 24 -1 28 9 6 13 0 12 -16 -1 -3 5 -6 13
-6 10 0 11 5 5 17 -5 9 -5 22 -1 29 6 10 10 9 14 -4 5 -10 3 -14 -5 -9 -7 5
-8 3 -4 -5 9 -13 21 -6 21 12 1 7 6 11 13 10 6 -2 16 6 22 17 6 11 16 17 22
14 7 -4 8 -3 4 5 -4 6 -11 9 -16 6 -15 -9 -5 19 15 43 24 27 50 30 40 5 -5
-14 -4 -15 6 -6 10 10 9 16 -2 29 -12 15 -12 17 0 9 11 -6 13 -4 8 9 -4 9 -3
14 2 11 5 -3 12 -1 16 5 4 6 11 8 16 4 14 -9 38 14 34 34 -4 26 15 43 39 36
19 -6 19 -5 7 10 -8 9 -11 19 -7 23 3 3 6 2 6 -4 0 -15 24 -23 39 -13 10 5 9
9 -4 13 -10 5 -14 3 -9 -5 4 -7 3 -8 -4 -4 -9 5 -9 13 -2 27 6 11 16 17 21 13
6 -3 9 2 7 12 -2 11 2 18 10 17 6 -2 12 2 12 9 0 6 3 9 6 6 3 -4 -2 -18 -12
-33 -14 -21 -15 -28 -4 -38 10 -9 11 -9 6 0 -4 7 3 26 15 42 17 24 20 33 10
44 -9 12 -7 14 11 13 13 0 26 -5 30 -11 5 -6 8 -5 8 3 0 7 4 11 9 7 5 -3 13 0
17 6 4 8 3 9 -4 5 -7 -4 -12 -3 -12 3 0 5 9 12 19 16 11 3 22 13 25 21 3 8 9
13 14 10 4 -2 9 4 9 15 1 11 -2 17 -7 14 -4 -3 -10 2 -14 10 -3 8 0 17 6 21 6
4 8 3 5 -3 -4 -6 0 -14 9 -17 23 -9 24 -8 24 14 0 11 5 20 11 20 6 0 8 -8 5
-17 -5 -15 -3 -14 10 2 8 11 19 19 24 18 5 -2 7 4 3 13 -5 13 -7 13 -14 2 -17
-27 -8 2 9 32 10 16 22 27 25 23 4 -3 0 -14 -8 -23 -14 -16 -14 -18 -1 -23 9
-4 15 -3 15 1 -3 20 2 32 15 32 8 0 14 9 13 19 0 11 -5 17 -9 15 -5 -3 -5 -11
-2 -17 4 -7 3 -8 -1 -4 -12 10 -16 39 -5 32 5 -3 12 0 15 6 4 5 14 8 22 4 13
-5 14 -3 3 10 -11 13 -11 16 0 13 10 -2 21 19 34 67 20 68 20 107 23 1464 3
1206 1 1406 -12 1482 -78 455 -398 824 -845 975 l-85 29 -1490 2 -1490 2 -84
-25z m2911 -1168 c44 -23 247 -206 263 -237 17 -33 19 -77 5 -114 -5 -14 -90
-122 -188 -238 -98 -117 -483 -576 -856 -1022 -374 -445 -700 -831 -725 -858
-93 -97 -138 -87 -310 71 -69 64 -351 325 -627 579 -275 254 -506 474 -512
488 -15 33 -15 104 1 131 17 31 188 222 213 239 35 23 96 35 135 26 29 -7 670
-389 936 -557 l52 -33 123 127 c134 138 141 145 843 876 264 274 493 507 510
517 36 22 99 24 137 5z"/>
</g>
</svg>
